<?xml version="1.0" encoding="utf-8"?>
<!-- Generator: Adobe Illustrator 19.1.0, SVG Export Plug-In . SVG Version: 6.00 Build 0)  -->
<svg version="1.1" id="Слой_1" xmlns="http://www.w3.org/2000/svg" xmlns:xlink="http://www.w3.org/1999/xlink" x="0px" y="0px"
	 viewBox="0 0 100 104.8" style="enable-background:new 0 0 100 104.8;" xml:space="preserve">
<style type="text/css">
	.st0{fill:#113933;}
	.st1{opacity:0.15;fill:#010202;}
	.st2{fill:#588C7C;}
	.st3{fill:#FFFFFF;}
</style>
<rect x="0" y="0" class="st0" width="100" height="104.8"/>
<polygon class="st1" points="100,104.8 28.6,104.8 14.3,90.5 85.7,28.6 100,42.8 "/>
<rect x="14.3" y="28.6" class="st2" width="71.4" height="61.9"/>
<polygon class="st1" points="100,42.8 71.4,14.3 65,35.4 42.9,14.3 34.5,33.5 35,54.4 28.6,76.2 57.1,104.8 100,104.8 "/>
<polygon class="st3" points="57.1,14.3 57.1,38.1 42.9,38.1 42.9,14.3 28.6,14.3 28.6,38.1 28.6,52.4 28.6,76.2 42.9,76.2 
	42.9,52.4 57.1,52.4 57.1,76.2 71.4,76.2 71.4,52.4 71.4,38.1 71.4,14.3 "/>
</svg>
